<svg width="209" height="35" viewBox="0 0 209 35" fill="none" xmlns="http://www.w3.org/2000/svg">
<path d="M41.6355 17.1202C41.6355 16.2918 40.964 15.6202 40.1355 15.6202C39.3071 15.6202 38.6355 16.2918 38.6355 17.1202H41.6355ZM38.6355 33.4443C38.6355 34.2727 39.3071 34.9443 40.1355 34.9443C40.964 34.9443 41.6355 34.2727 41.6355 33.4443H38.6355ZM39.0298 3.05542H63.5408V0.0554199H39.0298V3.05542ZM63.5408 15.6202H39.0298V18.6202H63.5408V15.6202ZM69.5968 9.33783C69.5968 12.8496 66.844 15.6202 63.5408 15.6202V18.6202C68.5837 18.6202 72.5968 14.4223 72.5968 9.33783H69.5968ZM63.5408 3.05542C66.844 3.05542 69.5968 5.8261 69.5968 9.33783H72.5968C72.5968 4.25334 68.5837 0.0554199 63.5408 0.0554199V3.05542ZM38.6355 17.1202V33.4443H41.6355V17.1202H38.6355Z" fill="white"/>
<path d="M108.535 17.5C108.535 26.3629 101.49 33.5 92.8566 33.5C84.2236 33.5 77.1779 26.3629 77.1779 17.5C77.1779 8.63712 84.2236 1.5 92.8566 1.5C101.49 1.5 108.535 8.63712 108.535 17.5Z" stroke="white" stroke-width="3"/>
<path d="M123.015 1.55542V33.4443" stroke="white" stroke-width="3" stroke-linecap="round" stroke-linejoin="round"/>
<path d="M135.994 33.4443V1.55542L167.68 33.4443V1.55542" stroke="white" stroke-width="3" stroke-linecap="round" stroke-linejoin="round"/>
<path d="M174.169 1.55542H207M190.203 15.9443V33.4443" stroke="white" stroke-width="3" stroke-linecap="round" stroke-linejoin="round"/>
<path d="M2 33.4443L18.4153 1.55542L33.6853 33.4443" stroke="white" stroke-width="3" stroke-linecap="round" stroke-linejoin="round"/>
</svg>
